<svg width="31" height="31" viewBox="0 0 31 31" fill="none" xmlns="http://www.w3.org/2000/svg">
  <rect x="2.5" y="5.5" width="27" height="21" rx="0.5" fill="white" stroke="black" />
  <path
    d="M1 6C1 4.89543 1.89543 4 3 4H28C29.1046 4 30 4.89543 30 6V25C30 26.1046 29.1046 27 28 27H3C1.89543 27 1 26.1046 1 25V6Z"
    fill="white" stroke="#ff6200" />
  <path d="M1 6C1 4.89543 1.89543 4 3 4H28C29.1046 4 30 4.89543 30 6V9H1V6Z" fill="#ff6200" />
  <path d="M1.5 10H29.5V9H1.5V10Z" fill="#bb4800" />
  <path fill-rule="evenodd" clip-rule="evenodd"
    d="M16.75 13C16.3818 13 16.0833 13.2985 16.0833 13.6667V13.8273C16.0833 14.1448 15.8441 14.4101 15.5375 14.4924C15.2311 14.5746 14.8996 14.4616 14.7409 14.1869L14.6607 14.0479C14.4766 13.729 14.0689 13.6198 13.75 13.8039C13.4311 13.9879 13.3219 14.3957 13.506 14.7145L13.5867 14.8544C13.7454 15.1293 13.6746 15.4758 13.4502 15.7002C13.2257 15.9246 12.8792 15.9955 12.6044 15.8368L12.4645 15.756C12.1457 15.572 11.7379 15.6812 11.5539 16.0001C11.3698 16.3189 11.479 16.7267 11.7979 16.9107L11.9368 16.991C12.2116 17.1496 12.3246 17.4811 12.2424 17.7876C12.1601 18.0942 11.8948 18.3334 11.5773 18.3334H11.4167C11.0485 18.3334 10.75 18.6319 10.75 19.0001C10.75 19.3683 11.0485 19.6668 11.4167 19.6668H11.5774C11.8948 19.6668 12.1602 19.906 12.2424 20.2126C12.3247 20.519 12.2117 20.8505 11.9369 21.0091L11.7979 21.0894C11.479 21.2735 11.3698 21.6812 11.5539 22.0001C11.738 22.3189 12.1457 22.4282 12.4645 22.2441L12.6045 22.1633C12.8793 22.0046 13.2258 22.0755 13.4502 22.2999C13.6746 22.5243 13.7454 22.8707 13.5868 23.1456L13.506 23.2855C13.3219 23.6044 13.4311 24.0121 13.75 24.1962C14.0689 24.3803 14.4766 24.271 14.6607 23.9522L14.7409 23.8131C14.8996 23.5384 15.2311 23.4254 15.5375 23.5076C15.8441 23.5899 16.0833 23.8552 16.0833 24.1727V24.3333C16.0833 24.7015 16.3818 25 16.75 25C17.1182 25 17.4167 24.7015 17.4167 24.3333V24.1727C17.4167 23.8552 17.6559 23.5899 17.9625 23.5076C18.2689 23.4254 18.6004 23.5384 18.7591 23.8131L18.8393 23.9521C19.0234 24.271 19.4311 24.3803 19.75 24.1962C20.0689 24.0121 20.1781 23.6043 19.994 23.2855L19.9133 23.1456C19.7546 22.8707 19.8254 22.5243 20.0498 22.2999C20.2742 22.0755 20.6207 22.0046 20.8955 22.1633L21.0355 22.2441C21.3543 22.4282 21.7621 22.3189 21.9462 22.0001C22.1303 21.6812 22.021 21.2735 21.7021 21.0894L21.5631 21.0091C21.2884 20.8505 21.1754 20.519 21.2576 20.2126C21.3399 19.906 21.6052 19.6668 21.9227 19.6668H22.0833C22.4515 19.6668 22.75 19.3683 22.75 19.0001C22.75 18.6319 22.4515 18.3334 22.0833 18.3334H21.9228C21.6052 18.3334 21.3399 18.0942 21.2576 17.7876C21.1754 17.4811 21.2884 17.1496 21.5632 16.991L21.7021 16.9107C22.021 16.7267 22.1303 16.3189 21.9462 16.0001C21.7621 15.6812 21.3543 15.572 21.0355 15.756L20.8956 15.8368C20.6208 15.9955 20.2743 15.9246 20.0499 15.7002C19.8254 15.4758 19.7546 15.1293 19.9133 14.8544L19.994 14.7146C20.1781 14.3957 20.0689 13.988 19.75 13.8039C19.4311 13.6198 19.0234 13.729 18.8393 14.0479L18.7591 14.1869C18.6004 14.4616 18.2689 14.5746 17.9625 14.4924C17.6559 14.4101 17.4167 14.1448 17.4167 13.8273V13.6667C17.4167 13.2985 17.1182 13 16.75 13ZM16.75 22.3333C18.591 22.3333 20.0833 20.841 20.0833 19C20.0833 17.1591 18.591 15.6667 16.75 15.6667C14.9091 15.6667 13.4167 17.1591 13.4167 19C13.4167 20.841 14.9091 22.3333 16.75 22.3333Z"
    fill="black" />
  <path fill-rule="evenodd" clip-rule="evenodd"
    d="M16 12C15.6318 12 15.3333 12.2985 15.3333 12.6667V12.8273C15.3333 13.1448 15.0941 13.4101 14.7875 13.4924C14.4811 13.5746 14.1496 13.4616 13.9909 13.1869L13.9107 13.0479C13.7266 12.729 13.3189 12.6198 13 12.8039C12.6811 12.9879 12.5719 13.3957 12.756 13.7145L12.8367 13.8544C12.9954 14.1293 12.9246 14.4758 12.7002 14.7002C12.4757 14.9246 12.1292 14.9955 11.8544 14.8368L11.7145 14.756C11.3957 14.572 10.9879 14.6812 10.8038 15.0001C10.6198 15.3189 10.729 15.7267 11.0479 15.9107L11.1868 15.991C11.4616 16.1496 11.5746 16.4811 11.4924 16.7876C11.4101 17.0942 11.1448 17.3334 10.8273 17.3334H10.6667C10.2985 17.3334 10 17.6319 10 18.0001C10 18.3683 10.2985 18.6668 10.6667 18.6668H10.8274C11.1448 18.6668 11.4101 18.9059 11.4924 19.2126C11.5746 19.519 11.4617 19.8505 11.1869 20.0091L11.0479 20.0894C10.729 20.2735 10.6198 20.6812 10.8039 21.0001C10.9879 21.3189 11.3957 21.4282 11.7145 21.2441L11.8545 21.1633C12.1293 21.0046 12.4758 21.0755 12.7002 21.2999C12.9246 21.5243 12.9954 21.8707 12.8368 22.1456L12.756 22.2855C12.5719 22.6044 12.6811 23.0121 13 23.1962C13.3189 23.3803 13.7266 23.271 13.9107 22.9522L13.991 22.8131C14.1496 22.5384 14.4811 22.4254 14.7875 22.5076C15.0941 22.5899 15.3333 22.8552 15.3333 23.1727V23.3333C15.3333 23.7015 15.6318 24 16 24C16.3682 24 16.6667 23.7015 16.6667 23.3333V23.1727C16.6667 22.8552 16.9059 22.5899 17.2125 22.5076C17.5189 22.4254 17.8504 22.5384 18.0091 22.8131L18.0893 22.9521C18.2734 23.271 18.6811 23.3803 19 23.1962C19.3189 23.0121 19.4281 22.6043 19.244 22.2855L19.1632 22.1456C19.0046 21.8707 19.0754 21.5243 19.2998 21.2999C19.5242 21.0755 19.8707 21.0046 20.1455 21.1633L20.2855 21.2441C20.6043 21.4282 21.0121 21.3189 21.1962 21.0001C21.3802 20.6812 21.271 20.2735 20.9521 20.0894L20.8131 20.0091C20.5384 19.8505 20.4254 19.519 20.5076 19.2126C20.5899 18.906 20.8552 18.6668 21.1727 18.6668H21.3333C21.7015 18.6668 22 18.3683 22 18.0001C22 17.6319 21.7015 17.3334 21.3333 17.3334H21.1728C20.8552 17.3334 20.5899 17.0942 20.5076 16.7876C20.4254 16.4811 20.5384 16.1496 20.8132 15.991L20.9521 15.9107C21.271 15.7267 21.3803 15.3189 21.1962 15.0001C21.0121 14.6812 20.6043 14.572 20.2855 14.756L20.1456 14.8368C19.8708 14.9955 19.5243 14.9246 19.2999 14.7002C19.0754 14.4758 19.0046 14.1293 19.1633 13.8544L19.244 13.7146C19.4281 13.3957 19.3189 12.988 19 12.8039C18.6811 12.6198 18.2734 12.729 18.0893 13.0479L18.0091 13.1869C17.8504 13.4616 17.5189 13.5746 17.2125 13.4924C16.9059 13.4101 16.6667 13.1448 16.6667 12.8273V12.6667C16.6667 12.2985 16.3682 12 16 12ZM16 21.3333C17.8409 21.3333 19.3333 19.841 19.3333 18C19.3333 16.1591 17.8409 14.6667 16 14.6667C14.159 14.6667 12.6667 16.1591 12.6667 18C12.6667 19.841 14.159 21.3333 16 21.3333Z"
    fill="#D9D9D9" />
  <circle cx="27" cy="7" r="1" fill="#141B11" />
  <circle cx="24" cy="7" r="1" fill="#141B11" />
  <circle cx="21" cy="7" r="1" fill="#141B11" />
  <circle cx="27" cy="6" r="1" fill="white" />
  <circle cx="24" cy="6" r="1" fill="white" />
  <circle cx="21" cy="6" r="1" fill="white" />
</svg>