<svg width="31" height="31" viewBox="0 0 31 31" fill="none" xmlns="http://www.w3.org/2000/svg">
  <rect x="2.5" y="5.5" width="27" height="21" rx="0.5" fill="white" stroke="black" />
  <path
    d="M3 4.5H28C28.8284 4.5 29.5 5.17157 29.5 6V25C29.5 25.8284 28.8284 26.5 28 26.5H3C2.17157 26.5 1.5 25.8284 1.5 25V6C1.5 5.17157 2.17157 4.5 3 4.5Z"
    fill="white" stroke="#FF6200" />
  <path d="M1 6C1 4.89543 1.89543 4 3 4H28C29.1046 4 30 4.89543 30 6V8H1V6Z" fill="#FF6200" />
  <rect x="3" y="5" width="2" height="2" fill="white" />
  <rect x="23" y="5" width="2" height="2" fill="white" />
  <rect x="26" y="5" width="2" height="2" fill="white" />
  <rect x="20" y="15" width="6" height="6" fill="#CC0101" />
  <path d="M8.5 16L12 23H4L8.5 16Z" fill="#B76EBF" />
  <rect x="12" y="12" width="6" height="6" rx="3" fill="#3B86E8" />
</svg>