<svg width="32" height="32" viewBox="0 0 32 32" fill="none" xmlns="http://www.w3.org/2000/svg">
  <path
    d="M3.70711 28.5563C3.31658 28.1658 3.31658 27.5327 3.70711 27.1421L15.0208 15.8284L17.1421 17.9497L5.82843 29.2635C5.4379 29.654 4.80474 29.654 4.41421 29.2635L3.70711 28.5563Z"
    fill="#434343" />
  <path
    d="M15.0208 15.8284L17.1421 13.7071C17.5327 13.3166 18.1658 13.3166 18.5563 13.7071L19.2635 14.4142C19.654 14.8047 19.654 15.4379 19.2635 15.8284L17.1421 17.9498L15.0208 15.8284Z"
    fill="white" />
  <path
    d="M28.3227 5.7862C28.4194 5.79127 28.4531 5.91717 28.3719 5.96993L26.9232 6.91073C26.8868 6.93433 26.8698 6.97863 26.8811 7.02048L27.3281 8.68901C27.3532 8.78258 27.2439 8.85357 27.1686 8.79261L25.8262 7.70553C25.7925 7.67826 25.7451 7.67578 25.7088 7.69937L24.2601 8.64018C24.1788 8.69294 24.0775 8.61091 24.1122 8.52047L24.7313 6.90782C24.7468 6.86737 24.7345 6.82153 24.7009 6.79426L23.3584 5.70718C23.2831 5.64622 23.3298 5.52453 23.4266 5.5296L25.1516 5.62001C25.1949 5.62228 25.2347 5.59643 25.2502 5.55598L25.8692 3.94332C25.904 3.85288 26.0341 3.85971 26.0592 3.95328L26.5063 5.62181C26.5175 5.66366 26.5544 5.69352 26.5976 5.69579L28.3227 5.7862Z"
    fill="#FFBC40" />
  <path
    d="M25.846 11.7416C25.918 11.6768 26.0309 11.742 26.0108 11.8367L25.6886 13.3522C25.6796 13.3946 25.6989 13.4379 25.7365 13.4596L27.0782 14.2343C27.1621 14.2827 27.135 14.4102 27.0387 14.4203L25.4978 14.5823C25.4547 14.5868 25.4195 14.6186 25.4105 14.6609L25.0883 16.1764C25.0682 16.2712 24.9386 16.2848 24.8992 16.1963L24.269 14.7809C24.2514 14.7413 24.2103 14.7176 24.1672 14.7221L22.6263 14.8841C22.53 14.8942 22.477 14.7751 22.549 14.7103L23.7004 13.6736C23.7326 13.6446 23.7424 13.5982 23.7248 13.5586L23.0946 12.1432C23.0552 12.0547 23.1521 11.9675 23.236 12.016L24.5777 12.7906C24.6153 12.8123 24.6625 12.8073 24.6947 12.7783L25.846 11.7416Z"
    fill="#FFBC40" />
  <path
    d="M16.6331 6.18394C16.6129 6.08918 16.7258 6.02401 16.7978 6.08883L18.1168 7.27645C18.149 7.30544 18.1962 7.3104 18.2337 7.28874L19.7708 6.40131C19.8547 6.35287 19.9515 6.44009 19.9121 6.52858L19.1902 8.15001C19.1726 8.18959 19.1825 8.23601 19.2147 8.265L20.5336 9.45262C20.6056 9.51744 20.5526 9.63651 20.4563 9.62638L18.6911 9.44086C18.648 9.43633 18.6069 9.46006 18.5893 9.49964L17.8674 11.1211C17.828 11.2096 17.6984 11.1959 17.6782 11.1012L17.3092 9.36509C17.3002 9.32272 17.265 9.29096 17.2219 9.28643L15.4567 9.10091C15.3604 9.09078 15.3333 8.96329 15.4172 8.91485L16.9543 8.02742C16.9918 8.00576 17.0111 7.9624 17.0021 7.92002L16.6331 6.18394Z"
    fill="#FFBC40" />
</svg>