<svg width="31" height="31" viewBox="0 0 31 31" fill="none" xmlns="http://www.w3.org/2000/svg">
  <path
    d="M2.70711 27.5563C2.31658 27.1658 2.31658 26.5327 2.70711 26.1421L14.0208 14.8284L16.1421 16.9497L4.82843 28.2635C4.4379 28.654 3.80474 28.654 3.41421 28.2635L2.70711 27.5563Z"
    fill="#434343" />
  <path
    d="M14.0208 14.8284L16.1421 12.7071C16.5327 12.3166 17.1658 12.3166 17.5563 12.7071L18.2635 13.4142C18.654 13.8047 18.654 14.4379 18.2635 14.8284L16.1421 16.9498L14.0208 14.8284Z"
    fill="white" />
  <path
    d="M27.3227 4.7862C27.4194 4.79127 27.4531 4.91717 27.3719 4.96993L25.9232 5.91073C25.8868 5.93433 25.8698 5.97863 25.8811 6.02048L26.3281 7.68901C26.3532 7.78258 26.2439 7.85357 26.1686 7.79261L24.8262 6.70553C24.7925 6.67826 24.7451 6.67578 24.7088 6.69937L23.2601 7.64018C23.1788 7.69294 23.0775 7.61091 23.1122 7.52048L23.7313 5.90782C23.7468 5.86737 23.7345 5.82153 23.7009 5.79426L22.3584 4.70718C22.2831 4.64622 22.3298 4.52453 22.4266 4.5296L24.1516 4.62001C24.1949 4.62228 24.2347 4.59643 24.2502 4.55598L24.8692 2.94332C24.904 2.85288 25.0341 2.85971 25.0592 2.95328L25.5063 4.62181C25.5175 4.66366 25.5544 4.69352 25.5976 4.69579L27.3227 4.7862Z"
    fill="#FFBC40" />
  <path
    d="M24.846 10.7416C24.918 10.6768 25.0309 10.742 25.0108 10.8367L24.6886 12.3522C24.6796 12.3946 24.6989 12.4379 24.7365 12.4596L26.0782 13.2343C26.1621 13.2827 26.135 13.4102 26.0387 13.4203L24.4978 13.5823C24.4547 13.5868 24.4195 13.6186 24.4105 13.6609L24.0883 15.1764C24.0682 15.2712 23.9386 15.2848 23.8992 15.1963L23.269 13.7809C23.2514 13.7413 23.2103 13.7176 23.1672 13.7221L21.6263 13.8841C21.53 13.8942 21.477 13.7751 21.549 13.7103L22.7004 12.6736C22.7326 12.6446 22.7424 12.5982 22.7248 12.5586L22.0946 11.1432C22.0552 11.0547 22.1521 10.9675 22.236 11.016L23.5777 11.7906C23.6153 11.8123 23.6625 11.8073 23.6947 11.7783L24.846 10.7416Z"
    fill="#FFBC40" />
  <path
    d="M15.6331 5.18394C15.6129 5.08918 15.7258 5.02401 15.7978 5.08883L17.1168 6.27645C17.149 6.30544 17.1962 6.3104 17.2337 6.28874L18.7708 5.40131C18.8547 5.35287 18.9515 5.44009 18.9121 5.52858L18.1902 7.15001C18.1726 7.18959 18.1825 7.23601 18.2147 7.265L19.5336 8.45262C19.6056 8.51744 19.5526 8.63651 19.4563 8.62638L17.6911 8.44086C17.648 8.43633 17.6069 8.46006 17.5893 8.49964L16.8674 10.1211C16.828 10.2096 16.6984 10.1959 16.6782 10.1012L16.3092 8.36509C16.3002 8.32272 16.265 8.29096 16.2219 8.28643L14.4567 8.10091C14.3604 8.09078 14.3333 7.96329 14.4172 7.91485L15.9543 7.02742C15.9918 7.00576 16.0111 6.9624 16.0021 6.92002L15.6331 5.18394Z"
    fill="#FFBC40" />
</svg>