<svg width="16" height="16" viewBox="0 0 16 16" fill="none" xmlns="http://www.w3.org/2000/svg">
  <g clip-path="url(#clip0_68_2)">
    <path fill-rule="evenodd" clip-rule="evenodd"
      d="M7.02699 9.04475C5.49309 9.95068 3.48429 9.74468 2.16635 8.42675C0.604257 6.86465 0.604257 4.33199 2.16635 2.76989C3.72845 1.2078 6.26111 1.2078 7.82321 2.76989C8.87013 3.81681 9.2154 5.29967 8.85903 6.63414L11.3587 9.13386L12.773 10.5481L14.1872 11.9623C14.5777 12.3528 14.5777 12.986 14.1872 13.3765L13.8336 13.73C13.2478 14.3158 12.2981 14.3158 11.7123 13.73L11.3587 13.3765L10.2981 14.4372C10.1028 14.6324 9.78624 14.6324 9.59098 14.4372C9.39571 14.2419 9.39571 13.9253 9.59098 13.73L10.6516 12.6694L9.94453 11.9623L9.23742 12.6694C8.8469 13.0599 8.21373 13.0599 7.82321 12.6694C7.43268 12.2789 7.43268 11.6457 7.82321 11.2552L8.53032 10.5481L7.02699 9.04475ZM3.58057 7.01253C4.36162 7.79358 5.62795 7.79358 6.409 7.01253C7.19004 6.23149 7.19004 4.96516 6.409 4.18411C5.62795 3.40306 4.36162 3.40306 3.58057 4.18411C2.79952 4.96516 2.79952 6.23149 3.58057 7.01253Z"
      fill="#705015" />
    <path fill-rule="evenodd" clip-rule="evenodd"
      d="M7.38057 8.69123C5.84667 9.59717 3.83786 9.39117 2.51993 8.07323C0.957834 6.51114 0.957834 3.97848 2.51993 2.41638C4.08203 0.854282 6.61469 0.854282 8.17679 2.41638C9.2237 3.4633 9.56898 4.94616 9.21261 6.28063L11.7123 8.78034L13.1265 10.1946L14.1872 11.2552C14.773 11.841 14.773 12.7907 14.1872 13.3765C13.6014 13.9623 12.6517 13.9623 12.0659 13.3765L11.7123 13.023L10.6517 14.0836C10.4564 14.2789 10.1398 14.2789 9.94455 14.0836C9.74929 13.8884 9.74929 13.5718 9.94455 13.3765L11.0052 12.3159L10.2981 11.6088L9.591 12.3159C9.20047 12.7064 8.56731 12.7064 8.17679 12.3159C7.78626 11.9253 7.78626 11.2922 8.17679 10.9017L8.88389 10.1946L7.38057 8.69123ZM3.93414 6.65902C4.71519 7.44007 5.98152 7.44007 6.76257 6.65902C7.54362 5.87797 7.54362 4.61164 6.76257 3.83059C5.98152 3.04954 4.71519 3.04954 3.93414 3.83059C3.1531 4.61164 3.1531 5.87797 3.93414 6.65902Z"
      fill="#FFBC40" />
  </g>
  <defs>
    <clipPath id="clip0_68_2">
      <rect width="16" height="16" fill="white" />
    </clipPath>
  </defs>
</svg>