<svg width="31" height="31" viewBox="0 0 31 31" fill="none" xmlns="http://www.w3.org/2000/svg">
<path d="M1 7C1 5.89543 1.89543 5 3 5H28C29.1046 5 30 5.89543 30 7V26C30 27.1046 29.1046 28 28 28H3C1.89543 28 1 27.1046 1 26V7Z" fill="#151F2D"/>
<g clip-path="url(#clip0_47_2)">
<path d="M1 6C1 4.89543 1.89543 4 3 4H28C29.1046 4 30 4.89543 30 6V25C30 26.1046 29.1046 27 28 27H3C1.89543 27 1 26.1046 1 25V6Z" fill="#233042"/>
<line x1="27.6" y1="4" x2="27.6" y2="27" stroke="#4D6A8F" stroke-width="0.2"/>
<line x1="23.6" y1="4" x2="23.6" y2="27" stroke="#4D6A8F" stroke-width="0.2"/>
<line x1="19.6" y1="4" x2="19.6" y2="27" stroke="#4D6A8F" stroke-width="0.2"/>
<line x1="15.6" y1="4" x2="15.6" y2="27" stroke="#4D6A8F" stroke-width="0.2"/>
<line x1="11.6" y1="4" x2="11.6" y2="27" stroke="#4D6A8F" stroke-width="0.2"/>
<line x1="7.6" y1="4" x2="7.6" y2="27" stroke="#4D6A8F" stroke-width="0.2"/>
<line x1="3.6" y1="4" x2="3.6" y2="27" stroke="#4D6A8F" stroke-width="0.2"/>
<line x1="1" y1="5.4" x2="30" y2="5.4" stroke="#4D6A8F" stroke-width="0.2"/>
<line x1="1" y1="9.4" x2="30" y2="9.4" stroke="#4D6A8F" stroke-width="0.2"/>
<line x1="1" y1="13.4" x2="30" y2="13.4" stroke="#4D6A8F" stroke-width="0.2"/>
<line x1="1" y1="17.4" x2="30" y2="17.4" stroke="#4D6A8F" stroke-width="0.2"/>
<line x1="1" y1="21.4" x2="30" y2="21.4" stroke="#4D6A8F" stroke-width="0.2"/>
<line x1="1" y1="25.4" x2="30" y2="25.4" stroke="#4D6A8F" stroke-width="0.2"/>
<path d="M17.9353 21.806L14.0647 10.194C14.0383 10.115 13.9327 10.1009 13.8866 10.1701L10.0297 15.9555C10.0111 15.9833 9.97992 16 9.94648 16H0.1C0.0447715 16 0 16.0448 0 16.1V27.9C0 27.9552 0.0447714 28 0.0999999 28H30.9C30.9552 28 31 27.9552 31 27.9V16.1C31 16.0448 30.9552 16 30.9 16H22.0535C22.0201 16 21.9889 16.0167 21.9703 16.0445L18.1134 21.8299C18.0673 21.8991 17.9617 21.885 17.9353 21.806Z" fill="#3A72BB" stroke="#6CACFF" stroke-miterlimit="16"/>
</g>
<defs>
<clipPath id="clip0_47_2">
<rect x="1" y="4" width="29" height="23" rx="2" fill="white"/>
</clipPath>
</defs>
</svg>
