<svg width="16" height="16" viewBox="0 0 16 16" fill="none" xmlns="http://www.w3.org/2000/svg">
  <path
    d="M3 1.5C3 1.22386 2.77614 1 2.5 1V1C2.22386 1 2 1.22386 2 1.5V13.7C2 13.8657 2.13431 14 2.3 14H6.7C6.86569 14 7 13.8657 7 13.7V13.3C7 13.1343 6.86569 13 6.7 13H3.3C3.13431 13 3 12.8657 3 12.7V3.3C3 3.13431 3.13431 3 3.3 3H7V9.7C7 9.86569 7.13431 10 7.3 10H11.2C11.3657 10 11.5 9.86569 11.5 9.7V9.3C11.5 9.13431 11.3657 9 11.2 9H8.3C8.13431 9 8 8.86569 8 8.7V6.3C8 6.13431 8.13431 6 8.3 6H11.2C11.3657 6 11.5 5.86569 11.5 5.7V5.3C11.5 5.13431 11.3657 5 11.2 5H8.3C8.13431 5 8 4.86569 8 4.7V3.3C8 3.13431 7.86569 3 7.7 3H7V2.3C7 2.13431 6.86569 2 6.7 2H3.3C3.13431 2 3 1.86569 3 1.7V1.5Z"
    fill="#F383FF" />
  <rect x="7" y="3" width="1" height="1.5" fill="#A165A8" />
  <rect x="5.5" y="13" width="1" height="1" fill="#A165A8" />
  <rect x="5.5" y="2" width="1" height="1" fill="#A165A8" />
  <rect x="10.5" y="5" width="1" height="1" fill="#A165A8" />
  <rect x="10.5" y="9" width="1" height="1" fill="#A165A8" />
  <rect x="6" y="1" width="3" height="3" rx="1.5" fill="#FFBC40" />
  <rect x="6" y="12" width="3" height="3" rx="1.5" fill="#FFBC40" />
  <rect x="11" y="4" width="3" height="3" rx="0.5" fill="#6CACFF" />
  <rect x="11" y="8" width="3" height="3" rx="0.5" fill="#6CACFF" />
</svg>