<svg width="31" height="31" viewBox="0 0 31 31" fill="none" xmlns="http://www.w3.org/2000/svg">
  <circle cx="16" cy="16" r="15" fill="#5A8546" />
  <circle cx="15" cy="15" r="15" fill="#86BE6C" />
  <path
    d="M14.1849 19.4329V19.1902C14.1898 18.3577 14.2665 17.6941 14.415 17.1993C14.5684 16.7045 14.7911 16.3049 15.0831 16.0005C15.3752 15.696 15.7266 15.4201 16.1373 15.1727C16.4442 14.9824 16.7189 14.785 16.9614 14.5804C17.2039 14.3758 17.3969 14.1498 17.5405 13.9025C17.684 13.6503 17.7558 13.3696 17.7558 13.0604C17.7558 12.7321 17.6741 12.4443 17.5108 12.1969C17.3474 11.9496 17.1272 11.7593 16.85 11.6261C16.5778 11.4929 16.2759 11.4263 15.9443 11.4263C15.6226 11.4263 15.3182 11.4952 15.0312 11.6332C14.7441 11.7664 14.509 11.9662 14.3259 12.2326C14.1428 12.4943 14.0438 12.8202 14.029 13.2103H11C11.0247 12.2588 11.2623 11.4738 11.7127 10.8554C12.1631 10.2322 12.7595 9.76831 13.5019 9.46384C14.2443 9.15461 15.0633 9 15.9592 9C16.9441 9 17.8151 9.15699 18.5724 9.47098C19.3296 9.78021 19.9235 10.2298 20.3541 10.8197C20.7847 11.4096 21 12.1208 21 12.9534C21 13.51 20.9035 14.0047 20.7105 14.4377C20.5224 14.8658 20.2576 15.2464 19.9161 15.5794C19.5746 15.9077 19.1713 16.205 18.706 16.4714C18.315 16.695 17.9933 16.9281 17.7409 17.1708C17.4934 17.4134 17.3079 17.6941 17.1841 18.0128C17.0653 18.3316 17.0035 18.724 16.9985 19.1902V19.4329H14.1849ZM15.6548 24C15.1599 24 14.7367 23.8334 14.3853 23.5004C14.0389 23.1626 13.8681 22.7583 13.873 22.2873C13.8681 21.8211 14.0389 21.4215 14.3853 21.0884C14.7367 20.7554 15.1599 20.589 15.6548 20.589C16.125 20.589 16.5382 20.7554 16.8946 21.0884C17.2509 21.4215 17.4316 21.8211 17.4365 22.2873C17.4316 22.6013 17.345 22.8891 17.1767 23.1508C17.0134 23.4077 16.7981 23.6146 16.5308 23.7716C16.2635 23.9238 15.9715 24 15.6548 24Z"
    fill="#5A8546" />
  <path
    d="M13.1849 18.4329V18.1902C13.1898 17.3577 13.2665 16.6941 13.415 16.1993C13.5684 15.7045 13.7911 15.3049 14.0831 15.0005C14.3752 14.696 14.7266 14.4201 15.1373 14.1727C15.4442 13.9824 15.7189 13.785 15.9614 13.5804C16.2039 13.3758 16.3969 13.1498 16.5405 12.9025C16.684 12.6503 16.7558 12.3696 16.7558 12.0604C16.7558 11.7321 16.6741 11.4443 16.5108 11.1969C16.3474 10.9496 16.1272 10.7593 15.85 10.6261C15.5778 10.4929 15.2759 10.4263 14.9443 10.4263C14.6226 10.4263 14.3182 10.4952 14.0312 10.6332C13.7441 10.7664 13.509 10.9662 13.3259 11.2326C13.1428 11.4943 13.0438 11.8202 13.029 12.2103H10C10.0247 11.2588 10.2623 10.4738 10.7127 9.85537C11.1631 9.23216 11.7595 8.76831 12.5019 8.46384C13.2443 8.15461 14.0633 8 14.9592 8C15.9441 8 16.8151 8.15699 17.5724 8.47098C18.3296 8.78021 18.9235 9.22978 19.3541 9.81969C19.7847 10.4096 20 11.1208 20 11.9534C20 12.51 19.9035 13.0047 19.7105 13.4377C19.5224 13.8658 19.2576 14.2464 18.9161 14.5794C18.5746 14.9077 18.1713 15.205 17.706 15.4714C17.315 15.695 16.9933 15.9281 16.7409 16.1708C16.4934 16.4134 16.3079 16.6941 16.1841 17.0128C16.0653 17.3316 16.0035 17.724 15.9985 18.1902V18.4329H13.1849ZM14.6548 23C14.1599 23 13.7367 22.8334 13.3853 22.5004C13.0389 22.1626 12.8681 21.7583 12.873 21.2873C12.8681 20.8211 13.0389 20.4215 13.3853 20.0884C13.7367 19.7554 14.1599 19.589 14.6548 19.589C15.125 19.589 15.5382 19.7554 15.8946 20.0884C16.2509 20.4215 16.4316 20.8211 16.4365 21.2873C16.4316 21.6013 16.345 21.8891 16.1767 22.1508C16.0134 22.4077 15.7981 22.6146 15.5308 22.7716C15.2635 22.9238 14.9715 23 14.6548 23Z"
    fill="white" />
</svg>