<svg width="16" height="16" viewBox="0 0 16 16" fill="none" xmlns="http://www.w3.org/2000/svg">
  <g clip-path="url(#clip0_94_2)">
    <path
      d="M0 4.16525C0 4.05658 0.0253016 3.9494 0.073901 3.8522L0.806525 2.38695C0.925099 2.1498 1.16748 2 1.43262 2H6.56738C6.83252 2 7.0749 2.1498 7.19348 2.38695L7.80652 3.61305C7.9251 3.8502 8.16748 4 8.43262 4H14.2265C14.6406 4 14.9642 4.35757 14.923 4.76965L14.063 13.3697C14.0273 13.7275 13.7261 14 13.3665 14H0.7C0.313401 14 0 13.6866 0 13.3V4.16525Z"
      fill="#8E6417" />
    <g filter="url(#filter0_d_94_2)">
      <path
        d="M1.87302 6.03967C1.94742 5.72347 2.22957 5.5 2.55441 5.5H15.1162C15.5676 5.5 15.901 5.92093 15.7976 6.36033L14.127 13.4603C14.0526 13.7765 13.7704 14 13.4456 14H0.252521C0.123551 14 0.028298 13.8797 0.0578372 13.7542L1.87302 6.03967Z"
        fill="#FFBC40" />
    </g>
  </g>
  <defs>
    <filter id="filter0_d_94_2" x="-0.947571" y="4.5" width="17.7641" height="10.5" filterUnits="userSpaceOnUse"
      color-interpolation-filters="sRGB">
      <feFlood flood-opacity="0" result="BackgroundImageFix" />
      <feColorMatrix in="SourceAlpha" type="matrix" values="0 0 0 0 0 0 0 0 0 0 0 0 0 0 0 0 0 0 127 0"
        result="hardAlpha" />
      <feOffset />
      <feGaussianBlur stdDeviation="0.5" />
      <feComposite in2="hardAlpha" operator="out" />
      <feColorMatrix type="matrix" values="0 0 0 0 0 0 0 0 0 0 0 0 0 0 0 0 0 0 0.5 0" />
      <feBlend mode="normal" in2="BackgroundImageFix" result="effect1_dropShadow_94_2" />
      <feBlend mode="normal" in="SourceGraphic" in2="effect1_dropShadow_94_2" result="shape" />
    </filter>
    <clipPath id="clip0_94_2">
      <rect width="16" height="16" fill="white" />
    </clipPath>
  </defs>
</svg>