<svg width="1920" height="1080" viewBox="0 0 1920 1080" fill="none" xmlns="http://www.w3.org/2000/svg">
  <g clip-path="url(#clip0_131_58)">
    <rect width="1920" height="1080" fill="#34422E" />
    <g opacity="0.5">
      <rect x="-185" y="876.248" width="2381" height="798.873" transform="rotate(-15 -185 876.248)" fill="white"
        fill-opacity="0.0666667" />
      <rect x="-145" y="916.248" width="2381" height="798.873" transform="rotate(-15 -145 916.248)" fill="white"
        fill-opacity="0.0666667" />
      <rect x="-65" y="996.248" width="2381" height="798.873" transform="rotate(-15 -65 996.248)" fill="white"
        fill-opacity="0.0666667" />
      <rect x="55" y="1116.25" width="2381" height="798.873" transform="rotate(-15 55 1116.25)" fill="white"
        fill-opacity="0.0666667" />
      <rect x="215" y="1276.25" width="2381" height="798.873" transform="rotate(-15 215 1276.25)" fill="white"
        fill-opacity="0.0666667" />
    </g>
    <g opacity="0.7">
      <rect x="2105.63" y="203.653" width="2381" height="798.873" transform="rotate(165 2105.63 203.653)" fill="black"
        fill-opacity="0.2" />
      <rect x="2065.63" y="163.653" width="2381" height="798.873" transform="rotate(165 2065.63 163.653)" fill="black"
        fill-opacity="0.2" />
      <rect x="1985.63" y="83.6526" width="2381" height="798.873" transform="rotate(165 1985.63 83.6526)" fill="black"
        fill-opacity="0.2" />
      <rect x="1865.63" y="-36.3475" width="2381" height="798.873" transform="rotate(165 1865.63 -36.3475)" fill="black"
        fill-opacity="0.2" />
      <rect x="1705.63" y="-196.347" width="2381" height="798.873" transform="rotate(165 1705.63 -196.347)" fill="black"
        fill-opacity="0.2" />
    </g>
  </g>
  <defs>
    <clipPath id="clip0_131_58">
      <rect width="1920" height="1080" fill="white" />
    </clipPath>
  </defs>
</svg>