<svg width="16" height="16" viewBox="0 0 16 16" fill="none" xmlns="http://www.w3.org/2000/svg">
  <path
    d="M2 0.7C2 0.313401 2.3134 0 2.7 0H9.71005C9.8957 0 10.0737 0.0737498 10.205 0.205025L13.795 3.79498C13.9263 3.92625 14 4.1043 14 4.28995V15.3C14 15.6866 13.6866 16 13.3 16H2.7C2.3134 16 2 15.6866 2 15.3V0.7Z"
    fill="white" />
  <path d="M10 0L14 4H10V0Z" fill="white" />
  <path d="M10.7 4C10.3134 4 10 3.6866 10 3.3L10 0H9V4.3C9 4.6866 9.3134 5 9.7 5H14V4H10.7Z" fill="#DADADA" />
  <path fill-rule="evenodd" clip-rule="evenodd"
    d="M5 7H4V8H3V12H4V10H5V12H6V8H5V7ZM5 8V9H4V8H5ZM8 7H7V12H8H9V11H10V10H9V9H10V8H9V7H8ZM9 8V9H8V8H9ZM8 11H9V10H8V11ZM12 8V11H13V12H12H11V11V8V7H13V8H12Z"
    fill="#910101" />
</svg>