<svg width="31" height="31" viewBox="0 0 31 31" fill="none" xmlns="http://www.w3.org/2000/svg">
  <path
    d="M14.0129 3.87336C14.3136 3.33418 14.8826 3 15.5 3V3C16.1174 3 16.6864 3.33418 16.9871 3.87336L29.3413 26.0259C30.0848 27.359 29.121 29 27.5946 29H3.40538C1.87897 29 0.915186 27.359 1.65865 26.0259L14.0129 3.87336Z"
    fill="#CF9A38" />
  <path
    d="M14.0129 2.87336C14.3136 2.33418 14.8826 2 15.5 2V2C16.1174 2 16.6864 2.33418 16.9871 2.87336L29.3413 25.0259C30.0848 26.359 29.121 28 27.5946 28H3.40538C1.87897 28 0.915186 26.359 1.65865 25.0259L14.0129 2.87336Z"
    fill="#FFBC40" />
  <rect x="14" y="21" width="3" height="4" rx="1" fill="#CF9A38" />
  <rect x="14" y="7" width="3" height="12" rx="1" fill="#CF9A38" />
  <rect x="14" y="21" width="3" height="3" rx="1" fill="white" />
  <rect x="14" y="7" width="3" height="11" rx="1" fill="white" />
</svg>