<svg width="31" height="31" viewBox="0 0 31 31" fill="none" xmlns="http://www.w3.org/2000/svg">
  <rect x="2.5" y="5.5" width="28" height="22" rx="0.5" fill="white" stroke="black" />
  <rect x="1" y="4" width="29" height="23" rx="2" fill="white" stroke="#86BE6C" />
  <path d="M1 6C1 4.89543 1.89543 4 3 4H28C29.1046 4 30 4.89543 30 6V9H1V6Z" fill="#86BE6C" />
  <path d="M1.5 10H29.5V9H1.5V10Z" fill="#779D65" />
  <path fill-rule="evenodd" clip-rule="evenodd"
    d="M15.75 12.5C15.3818 12.5 15.0833 12.7985 15.0833 13.1667V13.3273C15.0833 13.6448 14.8441 13.9101 14.5375 13.9924C14.2311 14.0746 13.8996 13.9616 13.7409 13.6869L13.6607 13.5479C13.4766 13.229 13.0689 13.1198 12.75 13.3039C12.4311 13.4879 12.3219 13.8957 12.506 14.2145L12.5867 14.3544C12.7454 14.6293 12.6746 14.9758 12.4502 15.2002C12.2257 15.4246 11.8792 15.4955 11.6044 15.3368L11.4645 15.256C11.1457 15.072 10.7379 15.1812 10.5539 15.5001C10.3698 15.8189 10.479 16.2267 10.7979 16.4107L10.9368 16.491C11.2116 16.6496 11.3246 16.9811 11.2424 17.2876C11.1601 17.5942 10.8948 17.8334 10.5773 17.8334H10.4167C10.0485 17.8334 9.75 18.1319 9.75 18.5001C9.75 18.8683 10.0485 19.1668 10.4167 19.1668H10.5774C10.8948 19.1668 11.1602 19.406 11.2424 19.7126C11.3247 20.019 11.2117 20.3505 10.9369 20.5091L10.7979 20.5894C10.479 20.7735 10.3698 21.1812 10.5539 21.5001C10.738 21.8189 11.1457 21.9282 11.4645 21.7441L11.6045 21.6633C11.8793 21.5046 12.2258 21.5755 12.4502 21.7999C12.6746 22.0243 12.7454 22.3707 12.5868 22.6456L12.506 22.7855C12.3219 23.1044 12.4311 23.5121 12.75 23.6962C13.0689 23.8803 13.4766 23.771 13.6607 23.4522L13.7409 23.3131C13.8996 23.0384 14.2311 22.9254 14.5375 23.0076C14.8441 23.0899 15.0833 23.3552 15.0833 23.6727V23.8333C15.0833 24.2015 15.3818 24.5 15.75 24.5C16.1182 24.5 16.4167 24.2015 16.4167 23.8333V23.6727C16.4167 23.3552 16.6559 23.0899 16.9625 23.0076C17.2689 22.9254 17.6004 23.0384 17.7591 23.3131L17.8393 23.4521C18.0234 23.771 18.4311 23.8803 18.75 23.6962C19.0689 23.5121 19.1781 23.1043 18.994 22.7855L18.9133 22.6456C18.7546 22.3707 18.8254 22.0243 19.0498 21.7999C19.2742 21.5755 19.6207 21.5046 19.8955 21.6633L20.0355 21.7441C20.3543 21.9282 20.7621 21.8189 20.9462 21.5001C21.1303 21.1812 21.021 20.7735 20.7021 20.5894L20.5631 20.5091C20.2884 20.3505 20.1754 20.019 20.2576 19.7126C20.3399 19.406 20.6052 19.1668 20.9227 19.1668H21.0833C21.4515 19.1668 21.75 18.8683 21.75 18.5001C21.75 18.1319 21.4515 17.8334 21.0833 17.8334H20.9228C20.6052 17.8334 20.3399 17.5942 20.2576 17.2876C20.1754 16.9811 20.2884 16.6496 20.5632 16.491L20.7021 16.4107C21.021 16.2267 21.1303 15.8189 20.9462 15.5001C20.7621 15.1812 20.3543 15.072 20.0355 15.256L19.8956 15.3368C19.6208 15.4955 19.2743 15.4246 19.0499 15.2002C18.8254 14.9758 18.7546 14.6293 18.9133 14.3544L18.994 14.2146C19.1781 13.8957 19.0689 13.488 18.75 13.3039C18.4311 13.1198 18.0234 13.229 17.8393 13.5479L17.7591 13.6869C17.6004 13.9616 17.2689 14.0746 16.9625 13.9924C16.6559 13.9101 16.4167 13.6448 16.4167 13.3273V13.1667C16.4167 12.7985 16.1182 12.5 15.75 12.5ZM15.75 21.8333C17.591 21.8333 19.0833 20.341 19.0833 18.5C19.0833 16.6591 17.591 15.1667 15.75 15.1667C13.9091 15.1667 12.4167 16.6591 12.4167 18.5C12.4167 20.341 13.9091 21.8333 15.75 21.8333Z"
    fill="black" />
  <path fill-rule="evenodd" clip-rule="evenodd"
    d="M15.25 12C14.8818 12 14.5833 12.2985 14.5833 12.6667V12.8273C14.5833 13.1448 14.3441 13.4101 14.0375 13.4924C13.7311 13.5746 13.3996 13.4616 13.2409 13.1869L13.1607 13.0479C12.9766 12.729 12.5689 12.6198 12.25 12.8039C11.9311 12.9879 11.8219 13.3957 12.006 13.7145L12.0867 13.8544C12.2454 14.1293 12.1746 14.4758 11.9502 14.7002C11.7257 14.9246 11.3792 14.9955 11.1044 14.8368L10.9645 14.756C10.6457 14.572 10.2379 14.6812 10.0538 15.0001C9.86975 15.3189 9.979 15.7267 10.2979 15.9107L10.4368 15.991C10.7116 16.1496 10.8246 16.4811 10.7424 16.7876C10.6601 17.0942 10.3948 17.3334 10.0773 17.3334H9.91667C9.54848 17.3334 9.25 17.6319 9.25 18.0001C9.25 18.3683 9.54848 18.6668 9.91667 18.6668H10.0774C10.3948 18.6668 10.6601 18.9059 10.7424 19.2126C10.8246 19.519 10.7117 19.8505 10.4369 20.0091L10.2979 20.0894C9.97901 20.2735 9.86976 20.6812 10.0539 21.0001C10.2379 21.3189 10.6457 21.4282 10.9645 21.2441L11.1045 21.1633C11.3793 21.0046 11.7258 21.0755 11.9502 21.2999C12.1746 21.5243 12.2454 21.8707 12.0868 22.1456L12.006 22.2855C11.8219 22.6044 11.9311 23.0121 12.25 23.1962C12.5689 23.3803 12.9766 23.271 13.1607 22.9522L13.241 22.8131C13.3996 22.5384 13.7311 22.4254 14.0375 22.5076C14.3441 22.5899 14.5833 22.8552 14.5833 23.1727V23.3333C14.5833 23.7015 14.8818 24 15.25 24C15.6182 24 15.9167 23.7015 15.9167 23.3333V23.1727C15.9167 22.8552 16.1559 22.5899 16.4625 22.5076C16.7689 22.4254 17.1004 22.5384 17.2591 22.8131L17.3393 22.9521C17.5234 23.271 17.9311 23.3803 18.25 23.1962C18.5689 23.0121 18.6781 22.6043 18.494 22.2855L18.4132 22.1456C18.2546 21.8707 18.3254 21.5243 18.5498 21.2999C18.7742 21.0755 19.1207 21.0046 19.3955 21.1633L19.5355 21.2441C19.8543 21.4282 20.2621 21.3189 20.4462 21.0001C20.6302 20.6812 20.521 20.2735 20.2021 20.0894L20.0631 20.0091C19.7884 19.8505 19.6754 19.519 19.7576 19.2126C19.8399 18.906 20.1052 18.6668 20.4227 18.6668H20.5833C20.9515 18.6668 21.25 18.3683 21.25 18.0001C21.25 17.6319 20.9515 17.3334 20.5833 17.3334H20.4228C20.1052 17.3334 19.8399 17.0942 19.7576 16.7876C19.6754 16.4811 19.7884 16.1496 20.0632 15.991L20.2021 15.9107C20.521 15.7267 20.6303 15.3189 20.4462 15.0001C20.2621 14.6812 19.8543 14.572 19.5355 14.756L19.3956 14.8368C19.1208 14.9955 18.7743 14.9246 18.5499 14.7002C18.3254 14.4758 18.2546 14.1293 18.4133 13.8544L18.494 13.7146C18.6781 13.3957 18.5689 12.988 18.25 12.8039C17.9311 12.6198 17.5234 12.729 17.3393 13.0479L17.2591 13.1869C17.1004 13.4616 16.7689 13.5746 16.4625 13.4924C16.1559 13.4101 15.9167 13.1448 15.9167 12.8273V12.6667C15.9167 12.2985 15.6182 12 15.25 12ZM15.25 21.3333C17.0909 21.3333 18.5833 19.841 18.5833 18C18.5833 16.1591 17.0909 14.6667 15.25 14.6667C13.409 14.6667 11.9167 16.1591 11.9167 18C11.9167 19.841 13.409 21.3333 15.25 21.3333Z"
    fill="#D9D9D9" />
  <circle cx="27.5" cy="7" r="1" fill="#141B11" />
  <circle cx="24.5" cy="7" r="1" fill="#141B11" />
  <circle cx="21.5" cy="7" r="1" fill="#141B11" />
  <circle cx="27" cy="6.5" r="1" fill="white" />
  <circle cx="24" cy="6.5" r="1" fill="white" />
  <circle cx="21" cy="6.5" r="1" fill="white" />
</svg>