<svg width="128" height="128" viewBox="0 0 128 128" fill="none" xmlns="http://www.w3.org/2000/svg">
  <rect x="32" y="32" width="64" height="64" rx="32" fill="#FF6200" fill-opacity="0.3" />
  <rect x="16" y="16" width="96" height="96" rx="45" fill="#FF6200" fill-opacity="0.3" />
  <path
    d="M54 30C54 18.9543 62.9543 10 74 10H113C115.761 10 118 12.2386 118 15V54C118 65.0457 109.046 74 98 74H64C58.4772 74 54 69.5228 54 64V30Z"
    fill="#FF8D46" fill-opacity="0.5" />
  <path
    d="M10 74C10 62.9543 18.9543 54 30 54H64C69.5228 54 74 58.4772 74 64V98C74 109.046 65.0457 118 54 118H15C12.2386 118 10 115.761 10 113V74Z"
    fill="#FF8D46" fill-opacity="0.5" />
  <path
    d="M64 20C64 8.95431 72.9543 0 84 0H123C125.761 0 128 2.23858 128 5V44C128 55.0457 119.046 64 108 64H74C68.4772 64 64 59.5228 64 54V20Z"
    fill="#FF9858" />
  <path
    d="M0 84C0 72.9543 8.95431 64 20 64H54C59.5228 64 64 68.4772 64 74V108C64 119.046 55.0457 128 44 128H5C2.23858 128 0 125.761 0 123V84Z"
    fill="#FF9858" />
</svg>